<svg width="183" height="147" xmlns="http://www.w3.org/2000/svg">

 <g>
  <title>background</title>
  <rect fill="none" id="canvas_background" height="149" width="185" y="-1" x="-1"/>
 </g>
 <g>
  <title>Layer 1</title>
  <path id="svg_5" d="m176.708494,74.252999c-8.182,-19.344 -25.359,-33.767 -44.813,-40.962c-10.322,-10.37 -24.609,-16.791 -40.396,-16.791c-31.48,0 -57,25.52 -57,57c0,0.495 0.025,0.983 0.037,1.475c-3.599,-2.871 -7.375,-6.256 -10.428,-9.588c-5.594,-6.104 -9.724,-12.813 -13.356,-19.866c-2.458,-4.772 -9.598,-2.991 -9.587,2.376c0.018,8.479 1.779,16.943 5.125,24.85c8.117,19.189 25.376,33.553 44.667,40.808c10.333,10.459 24.679,16.945 40.543,16.945c31.48,0 57,-25.52 57,-57c0,-0.454 -0.023,-0.901 -0.034,-1.353c3.6,2.851 7.367,6.129 10.425,9.465c5.594,6.104 9.724,12.813 13.356,19.866c2.458,4.771 9.599,2.991 9.587,-2.376c-0.019,-8.478 -1.781,-16.942 -5.126,-24.849zm-85.21,21.31c-12.185,0 -22.063,-9.878 -22.063,-22.063c0,-12.186 9.878,-22.063 22.063,-22.063s22.063,9.878 22.063,22.063c0,12.185 -9.878,22.063 -22.063,22.063z"/>
 </g>
</svg>