<svg width="183" height="183" xmlns="http://www.w3.org/2000/svg">

 <g>
  <title>background</title>
  <rect fill="none" id="canvas_background" height="185" width="185" y="-1" x="-1"/>
 </g>
 <g>
  <title>Layer 1</title>
  <path id="svg_2" d="m181.943226,68.131495c-4.254,-7.334 -10.012,-13.781 -16.863,-18.959c-16.44,-12.42 -38.209,-16.283 -58.35,-13.115c-4.475,-1.129 -9.157,-1.734 -13.981,-1.734c-0.162,0 -0.322,0.012 -0.483,0.013c2.642,-3.278 5.614,-6.669 8.597,-9.403c6.104,-5.594 12.813,-9.725 19.866,-13.356c4.771,-2.458 2.991,-9.599 -2.376,-9.587c-8.479,0.018 -16.942,1.779 -24.851,5.124c-18.668,7.897 -32.733,24.403 -40.162,43.052c-3.951,3.783 -7.355,8.127 -10.09,12.908c-1.65,-4.181 -3.27,-8.827 -4.217,-13.1c-1.793,-8.083 -2.014,-15.959 -1.634,-23.883c0.257,-5.361 -6.816,-7.39 -9.491,-2.736c-4.223,7.352 -6.93,15.563 -7.986,24.084c-2.498,20.141 4.758,40.623 17.22,56.39c1.244,5.558 3.299,10.806 6.035,15.618c-4.46,-0.662 -9.315,-1.586 -13.506,-2.906c-7.896,-2.488 -14.827,-6.235 -21.5,-10.527c-4.515,-2.902 -9.808,2.209 -7.114,6.852c4.255,7.334 10.012,13.783 16.863,18.959c15.889,12.004 36.751,16.01 56.314,13.408c5.807,1.994 12.031,3.092 18.515,3.092c0.088,0 0.175,-0.006 0.263,-0.007c-2.71,3.385 -5.785,6.918 -8.873,9.749c-6.104,5.594 -12.814,9.723 -19.867,13.355c-4.771,2.459 -2.991,9.598 2.377,9.587c8.479,-0.018 16.941,-1.779 24.85,-5.124c18.602,-7.87 32.632,-24.285 40.082,-42.85c4.238,-3.948 7.87,-8.534 10.751,-13.605c1.439,3.775 2.8,7.828 3.637,11.595c1.792,8.083 2.013,15.959 1.633,23.883c-0.256,5.361 6.816,7.39 9.491,2.735c4.224,-7.352 6.93,-15.562 7.987,-24.083c2.487,-20.052 -4.693,-40.446 -17.057,-56.184c-1.396,-5.554 -3.604,-10.784 -6.496,-15.556c3.973,0.639 8.141,1.483 11.804,2.637c7.896,2.49 14.827,6.236 21.499,10.527c4.513,2.901 9.806,-2.209 7.113,-6.853zm-111.257,23.191c0,-12.186 9.877,-22.063 22.063,-22.063c12.185,0 22.063,9.877 22.063,22.063s-9.878,22.063 -22.063,22.063c-12.186,0.001 -22.063,-9.877 -22.063,-22.063z"/>
 </g>
</svg>