<svg width="168" height="163" xmlns="http://www.w3.org/2000/svg">

 <g>
  <title>background</title>
  <rect fill="none" id="canvas_background" height="165" width="170" y="-1" x="-1"/>
 </g>
 <g>
  <title>Layer 1</title>
  <path id="svg_3" d="m149.076281,77.760703c-6.223,-24.736 -28.607,-43.052 -55.274,-43.052c-0.162,0 -0.322,0.012 -0.484,0.013c2.642,-3.278 5.614,-6.669 8.597,-9.403c6.104,-5.594 12.813,-9.725 19.866,-13.356c4.771,-2.458 2.991,-9.599 -2.376,-9.587c-8.479,0.018 -16.942,1.779 -24.851,5.124c-18.667,7.897 -32.733,24.403 -40.162,43.052c-10.833,10.375 -17.591,24.973 -17.591,41.158c0,10.23 2.708,19.823 7.428,28.123c-4.46,-0.662 -9.316,-1.586 -13.506,-2.906c-7.896,-2.488 -14.827,-6.235 -21.5,-10.527c-4.515,-2.902 -9.808,2.209 -7.114,6.852c4.255,7.334 10.012,13.783 16.863,18.959c15.888,12.004 36.751,16.01 56.314,13.408c5.807,1.994 12.031,3.092 18.515,3.092c21.256,0 39.782,-11.645 49.582,-28.895c1.439,3.775 2.8,7.828 3.637,11.595c1.792,8.083 2.013,15.959 1.633,23.883c-0.256,5.361 6.816,7.39 9.491,2.735c4.224,-7.352 6.93,-15.562 7.987,-24.083c2.488,-20.053 -4.692,-40.448 -17.055,-56.185zm-55.274,36.012c-12.185,0 -22.063,-9.878 -22.063,-22.063s9.878,-22.063 22.063,-22.063s22.063,9.877 22.063,22.063s-9.877,22.063 -22.063,22.063z"/>
 </g>
</svg>