<svg width="185" height="183" xmlns="http://www.w3.org/2000/svg">

 <g>
  <title>background</title>
  <rect fill="none" id="canvas_background" height="185" width="187" y="-1" x="-1"/>
 </g>
 <g>
  <title>Layer 1</title>
  <path id="svg_4" d="m177.71,92.252998c-8.182,-19.344 -25.36,-33.767 -44.814,-40.962c-10.322,-10.37 -24.608,-16.791 -40.396,-16.791c-0.437,0 -0.867,0.023 -1.302,0.033c2.835,-3.583 6.12,-7.406 9.415,-10.425c6.104,-5.594 12.814,-9.724 19.866,-13.356c4.771,-2.458 2.991,-9.598 -2.376,-9.587c-8.479,0.018 -16.943,1.779 -24.85,5.125c-19.21,8.126 -33.567,25.359 -40.812,44.67c-10.457,10.333 -16.942,24.678 -16.942,40.541c0,0.495 0.025,0.983 0.037,1.475c-3.599,-2.871 -7.375,-6.256 -10.428,-9.588c-5.594,-6.104 -9.724,-12.813 -13.356,-19.866c-2.458,-4.772 -9.598,-2.991 -9.587,2.376c0.018,8.479 1.779,16.943 5.125,24.85c8.116,19.189 25.376,33.553 44.666,40.808c10.334,10.459 24.679,16.945 40.544,16.945c0.552,0 1.098,-0.026 1.646,-0.042c-2.898,3.582 -6.474,7.421 -9.759,10.433c-6.104,5.594 -12.813,9.724 -19.866,13.356c-4.771,2.458 -2.991,9.599 2.376,9.587c8.479,-0.019 16.942,-1.779 24.851,-5.125c19.175,-8.11 33.712,-25.546 40.988,-44.839c10.354,-10.32 16.764,-24.596 16.764,-40.371c0,-0.454 -0.023,-0.902 -0.034,-1.353c3.6,2.851 7.367,6.129 10.426,9.466c5.594,6.104 9.724,12.813 13.356,19.866c2.458,4.771 9.598,2.991 9.587,-2.376c-0.02,-8.479 -1.781,-16.943 -5.125,-24.85zm-107.274,-0.753c0,-12.186 9.877,-22.063 22.063,-22.063s22.064,9.878 22.064,22.063c0,12.185 -9.879,22.063 -22.064,22.063s-22.063,-9.878 -22.063,-22.063z"/>
 </g>
</svg>