<svg width="147" height="147" xmlns="http://www.w3.org/2000/svg">

 <g>
    <path id="svg_8" d="m73.500001,16.499497c-31.48,0 -57,25.52 -57,57c0,31.479 25.52,56.999 57,56.999c31.479,0 57,-25.52 57,-56.999c0,-31.48 -25.52,-57 -57,-57zm0,79.063c-12.186,0 -22.063,-9.879 -22.063,-22.063c0,-12.186 9.877,-22.064 22.063,-22.064c12.185,0 22.063,9.879 22.063,22.064c0,12.184 -9.878,22.063 -22.063,22.063zm0,-94.037c-39.75,0 -71.974,32.225 -71.974,71.975c0,39.749 32.224,71.974 71.974,71.974s71.974,-32.225 71.974,-71.974c0,-39.751 -32.224,-71.975 -71.974,-71.975zm0,135.948c-35.332,0 -63.974,-28.643 -63.974,-63.974c0,-35.332 28.642,-63.975 63.974,-63.975s63.974,28.643 63.974,63.975c0,35.331 -28.642,63.974 -63.974,63.974z"/>
 </g>
</svg>
