<svg width="183" height="184" xmlns="http://www.w3.org/2000/svg">

 <g>
  <title>background</title>
  <rect fill="none" id="canvas_background" height="186" width="185" y="-1" x="-1"/>
 </g>
 <g>
  <title>Layer 1</title>
  <path id="svg_1" d="m176.7105,92.752493c-8.182,-19.344 -25.36,-33.767 -44.814,-40.962c-0.369,-0.372 -0.754,-0.729 -1.134,-1.09c4.578,-0.52 9.595,-0.816 14.128,-0.618c8.271,0.36 15.936,2.185 23.491,4.604c5.111,1.636 8.901,-4.672 5.099,-8.459c-6.008,-5.982 -13.238,-10.722 -21.195,-13.948c-19.357,-7.849 -41.557,-5.829 -60.333,2.732c-0.151,-0.001 -0.301,-0.011 -0.452,-0.011c-0.437,0 -0.867,0.023 -1.302,0.033c2.835,-3.583 6.12,-7.406 9.415,-10.425c6.104,-5.594 12.814,-9.724 19.866,-13.356c4.771,-2.458 2.991,-9.598 -2.376,-9.587c-8.479,0.018 -16.943,1.779 -24.85,5.125c-19.21,8.126 -33.567,25.359 -40.812,44.67c-0.434,0.428 -0.854,0.87 -1.273,1.312c-0.504,-4.561 -0.779,-9.702 -0.585,-14.16c0.361,-8.271 2.186,-15.935 4.604,-23.492c1.637,-5.111 -4.672,-8.902 -8.459,-5.099c-5.982,6.008 -10.722,13.238 -13.948,21.195c-7.884,19.442 -5.923,41.824 2.723,60.659c0,0.042 -0.003,0.083 -0.003,0.126c0,0.495 0.024,0.983 0.037,1.474c-3.599,-2.871 -7.375,-6.255 -10.428,-9.587c-5.594,-6.104 -9.724,-12.813 -13.355,-19.866c-2.459,-4.772 -9.599,-2.991 -9.588,2.376c0.018,8.479 1.779,16.943 5.125,24.85c8.116,19.189 25.375,33.553 44.665,40.808c0.438,0.442 0.888,0.871 1.339,1.299c-4.564,0.498 -9.737,0.757 -14.184,0.563c-8.271,-0.36 -15.936,-2.185 -23.492,-4.604c-5.111,-1.636 -8.902,4.672 -5.099,8.459c6.008,5.982 13.238,10.722 21.194,13.948c19.322,7.835 41.821,5.801 60.611,-2.725c0.059,0 0.115,0.004 0.174,0.004c0.552,0 1.098,-0.026 1.646,-0.042c-2.898,3.582 -6.474,7.421 -9.759,10.433c-6.104,5.594 -12.813,9.724 -19.866,13.356c-4.771,2.458 -2.991,9.599 2.376,9.587c8.479,-0.019 16.942,-1.779 24.851,-5.125c19.175,-8.111 33.712,-25.546 40.988,-44.839c0.441,-0.44 0.867,-0.896 1.294,-1.351c0.464,4.597 0.58,9.931 0.386,14.37c-0.359,8.271 -2.185,15.935 -4.604,23.492c-1.635,5.111 4.672,8.902 8.46,5.099c5.982,-6.008 10.722,-13.239 13.948,-21.195c7.89,-19.459 5.938,-41.734 -2.727,-60.568c0.001,-0.073 0.006,-0.144 0.006,-0.217c0,-0.454 -0.023,-0.902 -0.034,-1.353c3.6,2.851 7.367,6.129 10.426,9.466c5.594,6.104 9.724,12.813 13.356,19.866c2.458,4.771 9.598,2.991 9.587,-2.376c-0.017,-8.48 -1.778,-16.944 -5.123,-24.851zm-107.273,-0.753c0,-12.186 9.877,-22.063 22.063,-22.063s22.063,9.878 22.063,22.063c0,12.185 -9.878,22.063 -22.063,22.063s-22.063,-9.878 -22.063,-22.063z"/>
 </g>
</svg>